<?xml version="1.0" standalone="no"?>
<!DOCTYPE svg PUBLIC "-//W3C//DTD SVG 20010904//EN"
 "http://www.w3.org/TR/2001/REC-SVG-20010904/DTD/svg10.dtd">
<svg version="1.0" xmlns="http://www.w3.org/2000/svg"
 width="1155.000000pt" height="1155.000000pt" viewBox="0 0 1155.000000 1155.000000"
 preserveAspectRatio="xMidYMid meet">
<metadata>
Created by potrace 1.14, written by Peter Selinger 2001-2017
</metadata>
<g transform="translate(0.000000,1155.000000) scale(0.100000,-0.100000)"
fill="#000000" stroke="none">
<path d="M10120 9938 c-19 -5 -42 -12 -50 -15 -8 -3 -17 -7 -20 -8 -38 -9 -89
-31 -102 -43 -10 -8 -18 -12 -18 -7 0 4 -6 3 -12 -2 -13 -10 -41 -26 -178
-101 -36 -19 -82 -46 -102 -59 -21 -13 -40 -23 -42 -23 -2 0 -39 -20 -80 -45
-42 -25 -78 -45 -80 -45 -3 0 -39 -20 -80 -45 -42 -25 -78 -45 -80 -45 -3 0
-39 -20 -80 -45 -42 -25 -81 -45 -86 -45 -6 0 -10 -4 -10 -9 0 -5 -9 -13 -21
-16 -11 -4 -54 -27 -95 -51 -41 -24 -79 -44 -84 -44 -6 0 -10 -4 -10 -10 0 -5
-5 -10 -11 -10 -5 0 -56 -26 -112 -59 -56 -32 -124 -71 -152 -86 -27 -15 -54
-31 -60 -35 -5 -4 -35 -21 -65 -37 -30 -17 -83 -47 -117 -67 -34 -20 -66 -36
-72 -36 -6 0 -11 -3 -11 -8 0 -4 -17 -16 -37 -27 -21 -11 -71 -39 -111 -62
-41 -24 -75 -43 -78 -43 -2 0 -41 -22 -86 -49 -46 -27 -100 -58 -120 -70 -69
-38 -108 -61 -181 -102 -40 -23 -92 -53 -117 -67 -25 -14 -57 -33 -72 -43 -14
-11 -29 -19 -33 -19 -4 0 -20 -9 -36 -21 -16 -11 -29 -17 -29 -12 0 4 -4 3 -8
-3 -4 -6 -25 -21 -47 -33 -22 -12 -47 -26 -55 -31 -56 -36 -311 -180 -320
-180 -5 0 -10 -4 -10 -9 0 -5 -10 -13 -21 -16 -12 -4 -72 -37 -133 -74 -61
-36 -124 -73 -141 -81 -16 -8 -32 -18 -35 -21 -3 -4 -23 -15 -45 -27 -22 -11
-98 -54 -168 -96 -71 -42 -130 -76 -132 -76 -1 0 -65 -37 -141 -81 -77 -45
-159 -93 -184 -107 -25 -13 -49 -28 -55 -32 -5 -5 -37 -23 -70 -40 -33 -18
-67 -38 -75 -44 -8 -7 -32 -21 -52 -31 -21 -11 -38 -23 -38 -28 0 -4 -4 -6 -9
-3 -6 4 -10 -397 -10 -1011 -2 -1352 -3 -1452 -18 -1461 -10 -6 -13 -238 -15
-1073 -2 -585 -5 -1354 -8 -1709 -4 -462 -2 -648 6 -655 6 -5 31 -9 55 -8 24
1 807 1 1739 1 2104 -2 2655 0 2700 12 19 6 51 10 71 10 20 0 42 7 49 15 7 8
18 15 25 15 18 0 82 67 110 115 13 22 37 81 53 130 36 106 44 143 57 242 3 24
8 62 12 85 9 58 14 4878 5 4878 -4 -1 -29 -14 -57 -30 -27 -17 -58 -33 -67
-36 -10 -4 -18 -11 -18 -16 0 -5 -6 -8 -12 -6 -7 1 -38 -14 -68 -33 -30 -19
-74 -43 -97 -53 -24 -11 -43 -23 -43 -28 0 -4 -3 -7 -7 -6 -8 2 -94 -41 -138
-69 -11 -7 -27 -16 -35 -20 -8 -4 -57 -31 -109 -60 -51 -29 -95 -53 -97 -53
-3 0 -140 -78 -174 -100 -8 -5 -35 -20 -60 -33 -25 -14 -67 -38 -95 -55 -27
-17 -86 -50 -130 -73 -44 -23 -102 -56 -130 -73 -27 -17 -61 -38 -75 -45 -76
-43 -247 -142 -260 -151 -8 -6 -27 -15 -42 -21 -16 -6 -28 -15 -28 -20 0 -5
-4 -9 -10 -9 -9 0 -54 -26 -265 -150 -93 -55 -132 -77 -188 -109 -18 -10 -87
-50 -154 -89 -67 -39 -148 -85 -180 -103 -32 -17 -61 -37 -65 -43 -4 -6 -8 -8
-8 -4 0 4 -53 -24 -117 -64 -65 -39 -125 -71 -133 -73 -8 -1 -16 -12 -18 -23
-2 -12 -7 -22 -11 -22 -17 0 -21 -118 -22 -824 -1 -694 -1 -730 17 -743 10 -7
27 -13 39 -13 12 0 30 -6 40 -14 18 -13 49 -11 70 4 6 4 55 31 110 59 55 29
107 56 115 61 38 24 172 100 175 100 1 0 53 29 114 65 62 36 138 79 169 96 31
18 59 35 62 38 3 3 21 14 40 25 65 34 145 79 170 95 51 33 65 41 80 48 17 8
227 128 250 143 8 6 22 13 30 17 8 3 27 15 43 25 l27 19 1 -38 c0 -52 0 -1500
0 -1538 l-1 -30 -102 0 c-57 -1 -391 -5 -743 -9 -352 -5 -782 -9 -955 -10
l-315 -1 3 825 c2 454 4 1194 4 1646 l1 821 95 54 c53 30 118 67 145 82 28 15
92 53 142 83 51 29 98 54 104 54 6 0 11 3 11 8 0 4 17 16 38 27 20 11 54 30
75 43 21 13 55 32 75 44 20 11 129 74 242 140 113 66 212 123 220 128 212 123
382 222 445 259 44 27 103 61 130 77 28 16 58 33 67 39 9 5 29 17 45 26 84 47
132 75 251 146 72 43 166 98 208 123 111 64 130 75 424 250 414 246 584 349
597 360 7 5 15 10 18 10 4 0 38 19 76 42 l70 41 -5 256 c-3 141 -8 481 -12
756 l-6 500 -24 42 c-39 68 -72 101 -129 128 -58 29 -136 38 -195 23z"/>
<path d="M1055 9710 c-11 -4 -34 -13 -50 -19 -40 -15 -86 -57 -119 -107 -50
-77 -54 -133 -50 -614 5 -571 12 -939 19 -951 8 -12 172 -119 184 -119 5 0 11
-4 13 -8 2 -5 29 -24 62 -43 32 -19 75 -44 95 -57 20 -13 44 -25 54 -29 9 -3
17 -9 17 -14 0 -5 4 -9 9 -9 4 0 73 -39 152 -86 79 -48 153 -92 164 -98 16 -9
102 -60 273 -161 9 -6 35 -21 57 -33 22 -12 56 -32 77 -45 20 -12 102 -60 182
-107 l146 -85 -5 -75 c-18 -272 -21 -591 -24 -3080 l-3 -1915 22 -65 c39 -119
71 -171 160 -261 93 -93 186 -155 290 -190 61 -21 84 -22 419 -25 194 -1 360
-5 367 -8 8 -3 14 -2 14 2 0 7 68 7 141 -1 l26 -3 -4 655 c-3 361 -6 1241 -8
1956 -1 715 -5 1417 -9 1560 -11 399 -15 645 -11 645 5 0 312 -175 335 -190 8
-6 23 -13 33 -16 9 -4 17 -10 17 -15 0 -5 6 -9 14 -9 8 0 21 -6 28 -13 7 -7
29 -21 48 -30 19 -9 53 -28 75 -42 22 -14 56 -33 75 -42 19 -10 37 -20 40 -23
7 -7 43 -29 60 -37 8 -4 62 -34 120 -68 58 -34 112 -64 120 -68 8 -4 33 -18
55 -32 22 -14 47 -28 55 -32 8 -4 42 -23 75 -43 133 -81 367 -211 372 -207 2
3 7 453 10 1000 l5 994 -154 88 c-84 48 -166 96 -183 105 -28 17 -246 143
-435 251 -47 27 -92 54 -100 59 -8 6 -22 13 -30 17 -8 4 -42 23 -75 43 -33 20
-67 39 -75 43 -8 4 -33 19 -55 33 -22 14 -52 30 -67 37 -16 6 -28 15 -28 19 0
4 -4 8 -9 8 -5 0 -70 36 -146 80 -76 44 -139 80 -141 80 -2 0 -44 25 -95 55
-50 30 -93 55 -94 55 -1 0 -57 32 -124 70 -66 39 -125 70 -131 70 -5 0 -10 5
-10 10 0 6 -4 10 -9 10 -5 0 -55 27 -111 60 -56 33 -103 60 -105 60 -2 0 -54
29 -115 65 -112 65 -134 78 -290 165 -47 26 -109 61 -138 79 -29 17 -57 31
-62 31 -4 0 -10 3 -12 8 -3 6 -38 27 -123 71 -16 9 -32 19 -35 22 -3 3 -18 12
-35 21 -16 8 -88 48 -160 89 -71 41 -137 78 -145 82 -8 4 -24 13 -35 20 -19
12 -106 61 -210 120 -27 15 -62 33 -77 40 -16 6 -28 15 -28 19 0 4 -4 8 -9 8
-6 0 -36 15 -68 34 -128 74 -200 108 -262 125 -71 19 -183 25 -216 11z"/>
</g>
</svg>
